<mxfile host="app.diagrams.net" modified="2023-06-06T02:52:56.940Z" agent="Mozilla/5.0 (Windows NT 10.0; Win64; x64) AppleWebKit/537.36 (KHTML, like Gecko) Chrome/114.0.0.0 Safari/537.36" version="21.3.7" etag="Zq7p4OaNoZEbi9Nrl1be" type="github">
  <diagram name="第 1 页" id="hrldU2ZwqMq0yLkso_C0">
    <mxGraphModel>
      <root>
        <mxCell id="0" />
        <mxCell id="1" parent="0" />
      </root>
    </mxGraphModel>
  </diagram>
</mxfile>
